{"accessors" : [{"bufferView" : 0, "byteOffset" : 0, "componentType" : 5123, "count" : 618, "type" : "SCALAR", "max" : [495], "min" : [0]}, {"bufferView" : 1, "byteOffset" : 0, "componentType" : 5126, "count" : 496, "type" : "VEC3", "max" : [0.05264829099178314, 1.7459312677383423, 0.104268878698349], "min" : [0.012790132313966751, 1.7061340808868408, 0.08445993810892105], "name" : "POSITION"}, {"bufferView" : 1, "byteOffset" : 12, "componentType" : 5126, "count" : 496, "type" : "VEC2", "max" : [0.9646214246749878, 1.9818061590194702], "min" : [0.019903719425201416, 1.0209906101226807], "name" : "TEXCOORD_0"}, {"bufferView" : 1, "byteOffset" : 20, "componentType" : 5126, "count" : 496, "type" : "VEC3", "max" : [0.9406006932258606, 0.9512309432029724, 1.0000042915344238], "min" : [-0.9471116065979004, -0.9485120177268982, -1.0000042915344238], "name" : "NORMAL"}, {"bufferView" : 0, "byteOffset" : 1236, "componentType" : 5123, "count" : 618, "type" : "SCALAR", "max" : [500], "min" : [0]}, {"bufferView" : 2, "byteOffset" : 0, "componentType" : 5126, "count" : 501, "type" : "VEC3", "max" : [-0.013071108609437943, 1.7459717988967896, 0.10426890850067139], "min" : [-0.052770815789699554, 1.7060927152633667, 0.08445998281240463], "name" : "POSITION"}, {"bufferView" : 2, "byteOffset" : 12, "componentType" : 5126, "count" : 501, "type" : "VEC2", "max" : [0.9585750699043274, 1.966354489326477], "min" : [0.006885886192321777, 1.022762417793274], "name" : "TEXCOORD_0"}, {"bufferView" : 2, "byteOffset" : 20, "componentType" : 5126, "count" : 501, "type" : "VEC3", "max" : [0.9310468435287476, 0.9478710293769836, 1.0000042915344238], "min" : [-0.9491647481918335, -0.9364743232727051, -1.0000042915344238], "name" : "NORMAL"}, {"bufferView" : 0, "byteOffset" : 2472, "componentType" : 5123, "count" : 12282, "type" : "SCALAR", "max" : [9739], "min" : [0]}, {"bufferView" : 3, "byteOffset" : 0, "componentType" : 5126, "count" : 9740, "type" : "VEC3", "max" : [0.09579431265592575, 1.8330844640731812, 0.1427152305841446], "min" : [-0.09610731154680252, 1.5206061601638794, -0.08657769858837128], "name" : "POSITION"}, {"bufferView" : 3, "byteOffset" : 12, "componentType" : 5126, "count" : 9740, "type" : "VEC2", "max" : [0.9943000078201294, 1.9807000160217285], "min" : [0.004999999888241291, 1.004349946975708], "name" : "TEXCOORD_0"}, {"bufferView" : 3, "byteOffset" : 20, "componentType" : 5126, "count" : 9740, "type" : "VEC3", "max" : [0.9992218613624573, 0.9998693466186523, 0.9999847412109375], "min" : [-0.9992175102233887, -0.9999938011169434, -0.9999959468841553], "name" : "NORMAL"}, {"bufferView" : 0, "byteOffset" : 27036, "componentType" : 5123, "count" : 300, "type" : "SCALAR", "max" : [241], "min" : [0]}, {"bufferView" : 4, "byteOffset" : 0, "componentType" : 5126, "count" : 242, "type" : "VEC3", "max" : [0.028046080842614174, 1.6783846616744995, 0.12175560742616653], "min" : [-0.028046080842614174, 1.6426260471343994, 0.05459246039390564], "name" : "POSITION"}, {"bufferView" : 4, "byteOffset" : 12, "componentType" : 5126, "count" : 242, "type" : "VEC2", "max" : [0.9808249473571777, 1.9832134246826172], "min" : [0.051069796085357666, 1.028295874595642], "name" : "TEXCOORD_0"}, {"bufferView" : 4, "byteOffset" : 20, "componentType" : 5126, "count" : 242, "type" : "VEC3", "max" : [0.9971882700920105, 0.8775893449783325, 0.9974808692932129], "min" : [-0.9971882700920105, -0.9858413934707642, -0.7650182843208313], "name" : "NORMAL"}, {"bufferView" : 0, "byteOffset" : 27636, "componentType" : 5123, "count" : 3000, "type" : "SCALAR", "max" : [2477], "min" : [0]}, {"bufferView" : 5, "byteOffset" : 0, "componentType" : 5126, "count" : 2478, "type" : "VEC3", "max" : [0.09281288087368011, 1.852311372756958, 0.13870497047901154], "min" : [-0.09001138806343079, 1.6700317859649658, -0.08351245522499084], "name" : "POSITION"}, {"bufferView" : 5, "byteOffset" : 12, "componentType" : 5126, "count" : 2478, "type" : "VEC3", "max" : [0.9946483373641968, 0.9986873269081116, 0.9993846416473389], "min" : [-0.9968674182891846, -0.996292233467102, -0.9909208416938782], "name" : "NORMAL"}, {"bufferView" : 5, "byteOffset" : 24, "componentType" : 5126, "count" : 2478, "type" : "VEC2", "max" : [0.9950224161148071, 1.9581010341644287], "min" : [0.010376930236816406, 1.0334174633026123], "name" : "TEXCOORD_0"}, {"bufferView" : 0, "byteOffset" : 33636, "componentType" : 5123, "count" : 2964, "type" : "SCALAR", "max" : [2424], "min" : [0]}, {"bufferView" : 6, "byteOffset" : 0, "componentType" : 5126, "count" : 2425, "type" : "VEC3", "max" : [0.08215083926916122, 1.734890103340149, 0.12690681219100952], "min" : [-0.08215083926916122, 1.6978790760040283, -0.00420769676566124], "name" : "POSITION"}, {"bufferView" : 6, "byteOffset" : 12, "componentType" : 5126, "count" : 2425, "type" : "VEC3", "max" : [0.9967353343963623, 0.9990385174751282, 0.9991433620452881], "min" : [-0.9967353343963623, -0.9997580051422119, -0.9998177289962769], "name" : "NORMAL"}, {"bufferView" : 6, "byteOffset" : 24, "componentType" : 5126, "count" : 2425, "type" : "VEC2", "max" : [0.999171257019043, 1.9999635219573975], "min" : [-0.0009008646011352539, 1.000036358833313], "name" : "TEXCOORD_0"}, {"bufferView" : 0, "byteOffset" : 39564, "componentType" : 5123, "count" : 5022, "type" : "SCALAR", "max" : [4025], "min" : [0]}, {"bufferView" : 7, "byteOffset" : 0, "componentType" : 5126, "count" : 4026, "type" : "VEC3", "max" : [0.5314635038375854, 1.103089451789856, 0.14859198033809662], "min" : [-0.5314707159996033, 0.06424232572317123, -0.10406744480133057], "name" : "POSITION"}, {"bufferView" : 7, "byteOffset" : 12, "componentType" : 5126, "count" : 4026, "type" : "VEC2", "max" : [0.9857610464096069, 1.9892195463180542], "min" : [0.018731044605374336, 1.0793609619140625], "name" : "TEXCOORD_0"}, {"bufferView" : 7, "byteOffset" : 20, "componentType" : 5126, "count" : 4026, "type" : "VEC3", "max" : [0.9990524053573608, 0.8005296587944031, 0.9933791756629944], "min" : [-0.9990529417991638, -0.9900141954421997, -0.9930130839347839], "name" : "NORMAL"}, {"bufferView" : 7, "byteOffset" : 32, "componentType" : 5126, "count" : 4026, "type" : "VEC4", "max" : [0.9997003078460693, 0.9990330338478088, 0.9992403984069824, 1], "min" : [-0.9964986443519592, -0.9887961745262146, -0.99989253282547, 1], "name" : "TANGENT"}, {"bufferView" : 0, "byteOffset" : 49608, "componentType" : 5123, "count" : 3183, "type" : "SCALAR", "max" : [2585], "min" : [0]}, {"bufferView" : 8, "byteOffset" : 0, "componentType" : 5126, "count" : 2586, "type" : "VEC3", "max" : [0.19669432938098907, 1.0732635259628296, 0.13557854294776917], "min" : [-0.1960137039422989, 0.19393503665924072, -0.12367132306098938], "name" : "POSITION"}, {"bufferView" : 8, "byteOffset" : 12, "componentType" : 5126, "count" : 2586, "type" : "VEC2", "max" : [0.9872713088989258, 1.993969440460205], "min" : [0.015709467232227325, 1.094397783279419], "name" : "TEXCOORD_0"}, {"bufferView" : 8, "byteOffset" : 20, "componentType" : 5126, "count" : 2586, "type" : "VEC3", "max" : [0.99992835521698, 0.6503284573554993, 0.9991355538368225], "min" : [-0.9999285340309143, -0.9999528527259827, -0.9999939799308777], "name" : "NORMAL"}, {"bufferView" : 8, "byteOffset" : 32, "componentType" : 5126, "count" : 2586, "type" : "VEC4", "max" : [0.9999869465827942, 0.6244170665740967, 1.0000022649765015, 1], "min" : [-0.993943989276886, -0.5765066146850586, -1.000002145767212, 1], "name" : "TANGENT"}, {"bufferView" : 0, "byteOffset" : 55976, "componentType" : 5123, "count" : 3966, "type" : "SCALAR", "max" : [3180], "min" : [0]}, {"bufferView" : 9, "byteOffset" : 0, "componentType" : 5126, "count" : 3181, "type" : "VEC3", "max" : [0.23703451454639435, 0.1830497682094574, 0.24138127267360687], "min" : [-0.23704001307487488, 0.0007632309570908546, -0.12956233322620392], "name" : "POSITION"}, {"bufferView" : 9, "byteOffset" : 12, "componentType" : 5126, "count" : 3181, "type" : "VEC2", "max" : [0.9763879776000977, 1.9864959716796875], "min" : [0.009003999643027782, 1.0123169422149658], "name" : "TEXCOORD_0"}, {"bufferView" : 9, "byteOffset" : 20, "componentType" : 5126, "count" : 3181, "type" : "VEC3", "max" : [0.9999164938926697, 0.99745112657547, 0.9949986934661865], "min" : [-0.9999165534973145, -1.0000044107437134, -0.9961762428283691], "name" : "NORMAL"}, {"bufferView" : 9, "byteOffset" : 32, "componentType" : 5126, "count" : 3181, "type" : "VEC4", "max" : [0.9999468922615051, 0.895573079586029, 0.9980343580245972, 1], "min" : [-0.9993347525596619, -0.9999600648880005, -0.9223740100860596, -1], "name" : "TANGENT"}, {"bufferView" : 0, "byteOffset" : 63908, "componentType" : 5123, "count" : 7722, "type" : "SCALAR", "max" : [6158], "min" : [0]}, {"bufferView" : 10, "byteOffset" : 0, "componentType" : 5126, "count" : 6159, "type" : "VEC3", "max" : [0.46988722681999207, 1.652168869972229, 0.1634330302476883], "min" : [-0.4703594148159027, 1.0020132064819336, -0.20412500202655792], "name" : "POSITION"}, {"bufferView" : 10, "byteOffset" : 12, "componentType" : 5126, "count" : 6159, "type" : "VEC2", "max" : [0.9807490706443787, 1.9795656204223633], "min" : [0.021974602714180946, 1.0285882949829102], "name" : "TEXCOORD_0"}, {"bufferView" : 10, "byteOffset" : 20, "componentType" : 5126, "count" : 6159, "type" : "VEC3", "max" : [0.9998718500137329, 0.9818761944770813, 0.9998990297317505], "min" : [-0.9999059438705444, -0.9939289689064026, -0.9998077154159546], "name" : "NORMAL"}, {"bufferView" : 10, "byteOffset" : 32, "componentType" : 5126, "count" : 6159, "type" : "VEC4", "max" : [1.0000001192092896, 0.8542187213897705, 0.9988600015640259, 1], "min" : [-1.0000042915344238, -0.8054683804512024, -0.9990206956863403, -1], "name" : "TANGENT"}], "asset" : {"generator" : "Aspose.3D 23.12.0", "version" : "2.0"}, "buffers" : [{"uri" : "data:application/octet-stream;base64,", "byteLength" : 1667284}], "bufferViews" : [{"buffer" : 0, "byteOffset" : 0, "byteLength" : 79352, "target" : 34963}, {"buffer" : 0, "byteOffset" : 79356, "byteLength" : 19776, "byteStride" : 32, "target" : 34962}, {"buffer" : 0, "byteOffset" : 99136, "byteLength" : 19776, "byteStride" : 32, "target" : 34962}, {"buffer" : 0, "byteOffset" : 118916, "byteLength" : 393024, "byteStride" : 32, "target" : 34962}, {"buffer" : 0, "byteOffset" : 511944, "byteLength" : 9600, "byteStride" : 32, "target" : 34962}, {"buffer" : 0, "byteOffset" : 521548, "byteLength" : 96000, "byteStride" : 32, "target" : 34962}, {"buffer" : 0, "byteOffset" : 617552, "byteLength" : 94848, "byteStride" : 32, "target" : 34962}, {"buffer" : 0, "byteOffset" : 712404, "byteLength" : 241056, "byteStride" : 48, "target" : 34962}, {"buffer" : 0, "byteOffset" : 953464, "byteLength" : 152784, "byteStride" : 48, "target" : 34962}, {"buffer" : 0, "byteOffset" : 1106252, "byteLength" : 190368, "byteStride" : 48, "target" : 34962}, {"buffer" : 0, "byteOffset" : 1296624, "byteLength" : 370656, "byteStride" : 48, "target" : 34962}], "images" : [{"uri" : "data:image/jpeg;base64,"}, {"uri" : "data:image/jpeg;base64,"}, {"uri" : "data:image/jpeg;base64,"}, {"uri" : "data:image/jpeg;base64,"}, {"uri" : "data:image/jpeg;base64,"}, {"uri" : "data:image/png;base64,"}, {"uri" : "data:image/jpeg;base64,"}, {"uri" : "data:image/jpeg;base64,"}, {"uri" : "data:image/jpeg;base64,"}, {"uri" : "data:image/jpeg;base64,"}, {"uri" : "data:image/jpeg;base64,"}, {"uri" : "data:image/jpeg;base64,"}, {"uri" : "data:image/jpeg;base64,"}, {"uri" : "data:image/jpeg;base64,"}, {"uri" : "data:image/jpeg;base64,"}, {"uri" : "data:image/jpeg;base64,"}, {"uri" : "data:image/jpeg;base64,"}], "materials" : [{"name" : "Wolf3D_Eye", "pbrMetallicRoughness" : {"baseColorFactor" : [1, 1, 1, 1], "baseColorTexture" : {"index" : 0, "texCoord" : 0}, "metallicFactor" : 0, "roughnessFactor" : 1}, "emissiveFactor" : [0, 0, 0], "alphaMode" : "OPAQUE", "doubleSided" : false}, {"name" : "Wolf3D_Eye", "pbrMetallicRoughness" : {"baseColorFactor" : [1, 1, 1, 1], "baseColorTexture" : {"index" : 0, "texCoord" : 0}, "metallicFactor" : 0, "roughnessFactor" : 1}, "emissiveFactor" : [0, 0, 0], "alphaMode" : "OPAQUE", "doubleSided" : false}, {"name" : "Wolf3D_Skin", "pbrMetallicRoughness" : {"baseColorFactor" : [1, 1, 1, 1], "baseColorTexture" : {"index" : 1, "texCoord" : 0}, "metallicFactor" : 0, "roughnessFactor" : 0.699999988079071}, "emissiveFactor" : [0, 0, 0], "alphaMode" : "OPAQUE", "doubleSided" : false}, {"name" : "Wolf3D_Teeth", "pbrMetallicRoughness" : {"baseColorFactor" : [1, 1, 1, 1], "baseColorTexture" : {"index" : 2, "texCoord" : 0}, "metallicFactor" : 0, "roughnessFactor" : 1}, "emissiveFactor" : [0, 0, 0], "alphaMode" : "OPAQUE", "doubleSided" : true}, {"name" : "Wolf3D_Hair", "pbrMetallicRoughness" : {"baseColorFactor" : [1, 1, 1, 1], "baseColorTexture" : {"index" : 4, "texCoord" : 0}, "metallicFactor" : 0.03636400029063225, "roughnessFactor" : 0.6055644154548645}, "normalTexture" : {"index" : 3, "texCoord" : 0, "scale" : 1}, "emissiveFactor" : [0, 0, 0], "alphaMode" : "OPAQUE", "doubleSided" : true}, {"name" : "Wolf3D_Glasses", "pbrMetallicRoughness" : {"baseColorFactor" : [1, 1, 1, 1], "baseColorTexture" : {"index" : 5, "texCoord" : 0}, "metallicFactor" : 0, "roughnessFactor" : 0.15000000596046448}, "emissiveFactor" : [0, 0, 0], "alphaMode" : "OPAQUE", "doubleSided" : false}, {"name" : "Wolf3D_Body", "pbrMetallicRoughness" : {"baseColorFactor" : [1, 1, 1, 1], "baseColorTexture" : {"index" : 7, "texCoord" : 0}, "metallicFactor" : 0, "roughnessFactor" : 0.6982409358024597}, "normalTexture" : {"index" : 6, "texCoord" : 0, "scale" : 1}, "emissiveFactor" : [0, 0, 0], "alphaMode" : "OPAQUE", "doubleSided" : false}, {"name" : "Wolf3D_Outfit_Bottom", "pbrMetallicRoughness" : {"baseColorFactor" : [1, 1, 1, 1], "baseColorTexture" : {"index" : 9, "texCoord" : 0}, "metallicFactor" : 0, "roughnessFactor" : 1, "metallicRoughnessTexture" : {"index" : 10, "texCoord" : 0}}, "normalTexture" : {"index" : 8, "texCoord" : 0, "scale" : 1}, "emissiveFactor" : [0, 0, 0], "alphaMode" : "OPAQUE", "doubleSided" : false}, {"name" : "Wolf3D_Outfit_Footwear", "pbrMetallicRoughness" : {"baseColorFactor" : [1, 1, 1, 1], "baseColorTexture" : {"index" : 12, "texCoord" : 0}, "metallicFactor" : 0, "roughnessFactor" : 1, "metallicRoughnessTexture" : {"index" : 13, "texCoord" : 0}}, "normalTexture" : {"index" : 11, "texCoord" : 0, "scale" : 1}, "emissiveFactor" : [0, 0, 0], "alphaMode" : "OPAQUE", "doubleSided" : false}, {"name" : "Wolf3D_Outfit_Top", "pbrMetallicRoughness" : {"baseColorFactor" : [1, 1, 1, 1], "baseColorTexture" : {"index" : 15, "texCoord" : 0}, "metallicFactor" : 1, "roughnessFactor" : 1, "metallicRoughnessTexture" : {"index" : 16, "texCoord" : 0}}, "normalTexture" : {"index" : 14, "texCoord" : 0, "scale" : 1}, "emissiveFactor" : [0, 0, 0], "alphaMode" : "OPAQUE", "doubleSided" : false}], "meshes" : [{"primitives" : [{"attributes" : {"POSITION" : 1, "TEXCOORD_0" : 2, "NORMAL" : 3}, "indices" : 0, "material" : 0, "mode" : 4}]}, {"primitives" : [{"attributes" : {"POSITION" : 5, "TEXCOORD_0" : 6, "NORMAL" : 7}, "indices" : 4, "material" : 1, "mode" : 4}]}, {"primitives" : [{"attributes" : {"POSITION" : 9, "TEXCOORD_0" : 10, "NORMAL" : 11}, "indices" : 8, "material" : 2, "mode" : 4}]}, {"primitives" : [{"attributes" : {"POSITION" : 13, "TEXCOORD_0" : 14, "NORMAL" : 15}, "indices" : 12, "material" : 3, "mode" : 4}]}, {"primitives" : [{"attributes" : {"POSITION" : 17, "NORMAL" : 18, "TEXCOORD_0" : 19}, "indices" : 16, "material" : 4, "mode" : 4}]}, {"primitives" : [{"attributes" : {"POSITION" : 21, "NORMAL" : 22, "TEXCOORD_0" : 23}, "indices" : 20, "material" : 5, "mode" : 4}]}, {"primitives" : [{"attributes" : {"POSITION" : 25, "TEXCOORD_0" : 26, "NORMAL" : 27, "TANGENT" : 28}, "indices" : 24, "material" : 6, "mode" : 4}]}, {"primitives" : [{"attributes" : {"POSITION" : 30, "TEXCOORD_0" : 31, "NORMAL" : 32, "TANGENT" : 33}, "indices" : 29, "material" : 7, "mode" : 4}]}, {"primitives" : [{"attributes" : {"POSITION" : 35, "TEXCOORD_0" : 36, "NORMAL" : 37, "TANGENT" : 38}, "indices" : 34, "material" : 8, "mode" : 4}]}, {"primitives" : [{"attributes" : {"POSITION" : 40, "TEXCOORD_0" : 41, "NORMAL" : 42, "TANGENT" : 43}, "indices" : 39, "material" : 9, "mode" : 4}]}], "nodes" : [{"mesh" : 0, "name" : "EyeLeft"}, {"mesh" : 1, "name" : "EyeRight"}, {"mesh" : 2, "name" : "Wolf3D_Head"}, {"mesh" : 3, "name" : "Wolf3D_Teeth"}, {"mesh" : 4, "name" : "Wolf3D_Hair"}, {"mesh" : 5, "name" : "Wolf3D_Glasses"}, {"mesh" : 6, "name" : "Wolf3D_Body"}, {"mesh" : 7, "name" : "Wolf3D_Outfit_Bottom"}, {"mesh" : 8, "name" : "Wolf3D_Outfit_Footwear"}, {"mesh" : 9, "name" : "Wolf3D_Outfit_Top"}, {"children" : [0, 1, 2, 3, 4, 5, 6, 7, 8, 9], "name" : "Armature"}], "samplers" : [{"magFilter" : 9728, "minFilter" : 9728, "wrapS" : 10497, "wrapT" : 10497}, {"magFilter" : 9728, "minFilter" : 9728, "wrapS" : 10497, "wrapT" : 10497}, {"magFilter" : 9729, "minFilter" : 9987, "wrapS" : 10497, "wrapT" : 10497}, {"magFilter" : 9729, "minFilter" : 9987, "wrapS" : 10497, "wrapT" : 10497}, {"magFilter" : 9728, "minFilter" : 9728, "wrapS" : 10497, "wrapT" : 10497}, {"magFilter" : 9728, "minFilter" : 9728, "wrapS" : 10497, "wrapT" : 10497}, {"magFilter" : 9729, "minFilter" : 9987, "wrapS" : 33071, "wrapT" : 33071}, {"magFilter" : 9728, "minFilter" : 9728, "wrapS" : 10497, "wrapT" : 10497}, {"magFilter" : 9729, "minFilter" : 9987, "wrapS" : 10497, "wrapT" : 10497}, {"magFilter" : 9729, "minFilter" : 9987, "wrapS" : 10497, "wrapT" : 10497}, {"magFilter" : 9729, "minFilter" : 9987, "wrapS" : 10497, "wrapT" : 10497}, {"magFilter" : 9729, "minFilter" : 9987, "wrapS" : 10497, "wrapT" : 10497}, {"magFilter" : 9729, "minFilter" : 9987, "wrapS" : 10497, "wrapT" : 10497}, {"magFilter" : 9729, "minFilter" : 9987, "wrapS" : 10497, "wrapT" : 10497}, {"magFilter" : 9729, "minFilter" : 9987, "wrapS" : 10497, "wrapT" : 10497}, {"magFilter" : 9729, "minFilter" : 9987, "wrapS" : 10497, "wrapT" : 10497}, {"magFilter" : 9729, "minFilter" : 9987, "wrapS" : 10497, "wrapT" : 10497}], "scene" : 0, "scenes" : [{"nodes" : [10]}], "textures" : [{"sampler" : 0, "source" : 0, "name" : ""}, {"sampler" : 1, "source" : 1, "name" : ""}, {"sampler" : 2, "source" : 2, "name" : ""}, {"sampler" : 3, "source" : 3, "name" : ""}, {"sampler" : 4, "source" : 4, "name" : ""}, {"sampler" : 5, "source" : 5, "name" : ""}, {"sampler" : 6, "source" : 6, "name" : ""}, {"sampler" : 7, "source" : 7, "name" : ""}, {"sampler" : 8, "source" : 8, "name" : ""}, {"sampler" : 9, "source" : 9, "name" : ""}, {"sampler" : 10, "source" : 10, "name" : ""}, {"sampler" : 11, "source" : 11, "name" : ""}, {"sampler" : 12, "source" : 12, "name" : ""}, {"sampler" : 13, "source" : 13, "name" : ""}, {"sampler" : 14, "source" : 14, "name" : ""}, {"sampler" : 15, "source" : 15, "name" : ""}, {"sampler" : 16, "source" : 16, "name" : ""}]}